<?xml version="1.0" standalone="no"?>
<!DOCTYPE svg PUBLIC "-//W3C//DTD SVG 20010904//EN"
 "http://www.w3.org/TR/2001/REC-SVG-20010904/DTD/svg10.dtd">
<svg version="1.0" xmlns="http://www.w3.org/2000/svg"
 width="512.000000pt" height="512.000000pt" viewBox="0 0 512.000000 512.000000"
 preserveAspectRatio="xMidYMid meet">
<metadata>
Created by potrace 1.11, written by Peter Selinger 2001-2013
</metadata>
<g transform="translate(0.000000,512.000000) scale(0.100000,-0.100000)"
fill="#000000" stroke="none">
<path d="M690 4862 c-197 -27 -342 -99 -475 -236 -76 -78 -123 -150 -162 -246
-55 -138 -54 -100 -50 -1413 1 -667 7 -1227 11 -1246 40 -175 146 -341 286
-451 57 -45 82 -59 195 -110 74 -34 137 -43 318 -47 103 -3 187 -9 187 -14 0
-4 -9 -57 -21 -116 -26 -137 -21 -109 -75 -378 -54 -270 -57 -299 -23 -323 13
-9 30 -20 39 -23 15 -6 83 13 104 30 6 4 74 41 151 81 77 40 176 92 220 115
44 23 130 68 190 100 61 32 146 77 190 100 127 67 260 138 390 205 115 60 201
105 348 184 l68 36 927 0 c758 0 939 3 993 14 289 62 509 269 596 561 16 56
18 143 20 1285 2 1318 3 1277 -50 1409 -93 230 -283 397 -527 464 -74 20 -90
20 -1950 21 -1031 1 -1886 0 -1900 -2z"/>
</g>
</svg>
